<?xml version="1.0" encoding="UTF-8"?>
<svg version="1.1" viewBox="0 0 2048 2048" width="3840" height="3840" xmlns="http://www.w3.org/2000/svg">
<path transform="translate(0)" d="m0 0h2048v2048h-2048z" fill="#1C2338"/>
<path transform="translate(716,533)" d="m0 0h19l32 6 28 7 32 11 23 10 22 11 24 15 14 10 10 8 12 11 8 7 8 8 7 8 11 13 11 15 11 19 9 19 9 24 6 7 4 2-5-8-4-7v-10l6-7 7-1-4-6-14-23-11-18-10-15-9-15-12-19-9-15-12-19-14-23 1-4 4 2 13 21 14 23 12 19 15 24 14 22 13 21 12 19 4 5 5 1 5-5 10-15 10-17 10-15 11-18 8-13 10-16 12-19 11-18 12-19 3-2 2 4-10 16-10 17-15 23-11 18-12 19-11 18-8 13-13 21-4 8 6 1 5 5 1 8-3 9-4 6v3l6-5 6-12 6-17 6-14 11-19 12-17 11-13 7-8 18-18 11-9 12-10 15-10 11-7 18-10 25-12 26-10 33-10 34-7 12-2h19l42 16 46 17 8 5 6 7 2 4v24l-9 62-11 71-4 13-4 6-9 8-18 10-26 15-29 16-21 12-19 9-15 4-7 1-220 1v8h195l15 2 16 6 13 7 10 8 12 11 19 19 17 16 2 3-1 8-18 36-9 20-10 21-10 18-12 10-14 11-14 12-24 18-9 7-13 10-9 4-39 11-32 9-12 3h-7l-6-3-5-6-3-9-11-49-11-48-16-71-14-59-5-18-2-1h-11v7l3 2 8 2 4 4 1 25-1 29-3 38-6 45-7 37-4 17-4 6-3-2-4-14-5-23-4-20-5-36-3-31-2-38v-28l3-7 12-5 1-1v-5l-3-2h-9l-3 3-4 18-11 46-8 37-14 62-20 86-4 7-7 4h-12l-23-6-36-10-25-7-16-12-18-14-14-11-13-10-18-14-13-10-12-25-11-23-16-33-8-18 2-5 15-16 24-24 8-7 14-11 14-7 12-4 17-2 193-1 2-8h-221l-16-3-16-6-26-14-23-13-18-10-25-14-18-11-6-7-3-7-7-41-16-106v-16l5-10 7-6 16-7 54-20z" fill="#CCA971"/>
<path transform="translate(619,578)" d="m0 0 28 5 27 6 35 10 36 12 16 6 32 13 29 14 25 13 26 16 22 15 19 14 26 22 13 12 17 17 8 10 12 14 13 18 2 3v28l-9-3-29-14-29-12-40-15-48-15-44-11-37-7-26-4-44-4-25-1h-38l-2-7-8-51-11-73-1-7v-16z" fill="#1C2338"/>
<path transform="translate(1435,579)" d="m0 0h7l4 6 1 3-1 15-11 74-9 57-1 5-2 1-58 1-39 3-35 5-36 7-24 6-27 7-58 19-38 15-25 11-25 12h-2l-1-8v-19l14-19 11-14 12-13 9-10 15-15 8-7 10-9 12-9 18-14 32-21 21-12 18-10 33-16 26-11 27-10 40-13 38-10 24-5z" fill="#1C2338"/>
<path transform="translate(1329,537)" d="m0 0h13l41 15 15 6 23 8 15 6v3l-18 3-50 12-66 22-26 11-27 12-19 10-26 14-10 6-23 15-18 13-13 10-26 22-9 8-7 8-13 13-9 11-11 13-7 9-3 2 1-19 3-24 5-21 8-21 10-19 7-11 10-14 13-15 7-8 12-12 11-9 13-11 24-16 27-15 25-11 25-9 36-10 31-6z" fill="#1C2338"/>
<path transform="translate(719,536)" d="m0 0 21 2 37 8 25 7 26 9 21 9 19 10 17 10 19 13 14 11 13 12 19 19 9 11 10 13 10 16 12 23 8 23 4 19 2 26v10l-4-2-11-14-12-14-16-17-17-17-8-7-13-11-17-13-14-10-24-16-22-13-33-17-19-9-32-13-32-12-40-12-36-9-30-6-2-2 8-4 65-24 21-8z" fill="#1C2338"/>
<path transform="translate(941,847)" d="m0 0h56l-2 4-5 5-17 16-10 9-14 12-16 13-18 13-16 11-27 18-22 14-22 13-33 18-16 8-17 8-9 3-16-33-11-23-17-37v-2l44-9 35-9 35-10 29-9 48-17 29-11z" fill="#1C2338"/>
<path transform="translate(1064,847)" d="m0 0h54l31 12 30 11 35 12 46 14 42 11 35 8 14 3-1 5-16 33-11 24-15 30-4 2-40-20-22-12-21-12-24-15-12-8-17-11-16-11-16-12-11-8-11-9-13-11-12-11-10-9-13-12z" fill="#1C2338"/>
<path transform="translate(999,853)" d="m0 0 1 4-4 15-5 20-10 19-12 20-18 27-13 18-12 16-11 14-11 13-12 14-11 12-10 10-7 8-11 11-10 8-9-6-16-12-15-12-16-12-12-10-16-12v-3l21-10 19-10 24-13 21-12 19-12 20-13 31-21 18-13 16-13 11-9 14-12 10-9 15-14z" fill="#1C2338"/>
<path transform="translate(1060,851)" d="m0 0 6 5 18 18 11 9 11 10 11 9 13 10 17 12 20 14 22 14 14 9 28 17 26 14 20 11 23 11 2 1-1 3-10 8-14 11-12 10-13 10-10 8-16 12-7 5-6-4-12-12-6-5-7-8-13-13-9-11-13-14-10-13-11-13-20-28-14-21-14-22-10-17-6-15-8-33z" fill="#1C2338"/>
<path transform="translate(638,744)" d="m0 0h54l48 4 39 6 38 8 41 11 32 10 33 12 27 11 21 9 16 8 7 4v1l-17 1h-190l-14-2-15-5-16-8-23-13-17-9-17-10-22-12-18-11-6-7-2-4z" fill="#1C2338"/>
<path transform="translate(1374,744)" d="m0 0h49l-1 7-8 9-24 14-18 10-14 8-23 13-27 15-19 7-17 2h-168l-38-1 4-4 20-9 16-7 27-11 27-10 40-13 37-10 30-7 27-5 37-5z" fill="#1C2338"/>
<path transform="translate(1006,745)" d="m0 0 15 7 5 1h10l10-3 7-4h2l-3 27v69l-13 2-4 5v8l5 4 9 3 1 1 1 10v18l-2 44-2 21-5 37-6 32-5 22-2-2-9-45-6-44-4-49v-41l3-4 9-3 4-5v-7l-5-5-3-1h-9l-1-1 1-55-1-24z" fill="#1C2338"/>
<path transform="translate(985,913)" d="m0 0 1 4-8 35-10 44-9 42-9 37-6 24-4 6-3 2h-9l-55-15-24-7 3-5 32-32 7-8 9-10 9-11 11-13 13-17 14-18 8-12 7-10 13-20z" fill="#1C2338"/>
<path transform="translate(1075,913)" d="m0 0 5 5 8 14 22 33 13 18 13 17 9 11 12 14 12 13 7 8 14 15 22 22v2l-39 11-33 9-7 2h-9l-5-4-4-10-12-52-12-53-7-31-8-36z" fill="#1C2338"/>
<path transform="translate(728,1254)" d="m0 0h15l10 4 6 4 7 6 7 10 4 10 2 11v16l-4 15-6 11-5 6-10 7-7 3-5 1h-14l-11-4-8-6-8-9-6-12-3-11v-21l4-13 8-13 7-7 13-7z" fill="#1C2338"/>
<path transform="translate(848,1254)" d="m0 0h9l10 3 8 5 7 6 9 14 4 12 1 6v14l-4 16-6 11-6 7-10 7-9 3h-18l-9-3-9-7-7-8-7-13-2-9v-22l4-13 5-10 9-10 12-7z" fill="#1C2338"/>
<path transform="translate(1031,1254)" d="m0 0h13l9 3 13 9 7 9 5 10 3 12v20l-4 14-7 11-8 8-14 7-3 1h-13l-13-4-10-8-8-11-5-12-2-9v-14l2-11 5-12 8-10 8-7 10-5z" fill="#1C2338"/>
<path transform="translate(1135,846)" d="m0 0h113l17 2 18 6 15 9 13 12 9 9 8 7 20 20 1 3-22-4-42-10-41-12-35-11-33-11-41-16-3-3z" fill="#1C2338"/>
<path transform="translate(831,846)" d="m0 0 95 1v2l-20 8-33 12-36 12-42 13-57 14-21 4-4-1 44-44 15-10 12-6 11-3 8-1z" fill="#1C2338"/>
<path transform="translate(1256,1258)" d="m0 0h21l13 2 14 8 10 10 6 11 2 8v19l-3 10-5 8-9 10-11 7-16 4h-23v-96z" fill="#1C2338"/>
<path transform="translate(1420,1204)" d="m0 0h23l10 2 14 7 9 8 7 11 4 13v15l-4 13-6 10-5 5-7 6-11 5-9 2h-25l-1-1v-95z" fill="#1C2338"/>
<path transform="translate(593,1204)" d="m0 0h11l14 1 12 4 11 7 8 9 6 12 2 11v11l-3 12-5 10-6 7-11 8-12 4-6 1h-23v-96z" fill="#1C2338"/>
<path transform="translate(1245,1202)" d="m0 0h36l13 4 10 7 5 9 1 10-3 9-7 8-10 6-3 1 13 4 10 5 10 8 6 8 4 7 3 13v10l-3 12-4 8-7 9-11 9-12 5-13 3h-38zm11 56-1 1v96h23l16-4 11-7 7-7 6-9 3-8 1-4v-19l-3-10-6-10-10-10-13-7-13-2z" fill="#F8F5F4"/>
<path transform="translate(1410,1202)" d="m0 0h37l14 3 11 5 9 6 7 7 6 10 3 9 1 15-3 12-5 10-9 10-8 6-10 5-7 3 8 6 7 7 5 8 14 33 9 15 9 11 11 9 12 6 8 2h9l8-4 4-6 1-10-3-7-5-4-5-2-7-1 1-2 9 1 6 3 5 6 2 6v9l-4 8-6 5-4 2-13 1-16-3-14-7-12-11-6-7-8-14-9-24-5-14-9-13-10-6-3-1-25-1v53l-10 1zm10 2-1 2v94l1 1h25l12-3 11-6 7-6 7-11 4-10 1-5v-15l-4-13-7-11-10-9-16-7-7-1z" fill="#F4EFE9"/>
<path transform="translate(846,1252)" d="m0 0h14l12 3 11 6 12 11 7 11 4 13v21l-4 13-7 11-10 10-10 6-11 3-7 1h-10l-16-3-11-6-9-9-2-3v57l-1 14h-10v-114l3-10 8-14 8-9 13-8zm2 2-9 2-12 7-9 10-6 12-3 11v22l3 11 6 11 9 10 9 6 7 2h18l11-4 9-7 8-11 4-8 3-14v-14l-4-16-7-12-7-8-9-6-7-3-5-1z" fill="#F3EDE6"/>
<path transform="translate(1369,1192)" d="m0 0h2l12 69 10 59 6 33v4l-10 1-5-25-5-29h-26l-5 26-4 22-1 5-3-1 7-40 7-41 6-33 5-25z" fill="#F5F0EB"/>
<path transform="translate(580,1202)" d="m0 0h35l12 2 13 5 11 7 7 7 7 12 3 13v9l-2 10-7 14-7 8-10 7-12 5-15 3h-24v53l-10 1-1-2zm13 2-2 1v96h23l16-4 9-6 6-5 7-10 4-12 1-5v-11l-3-14-7-12-10-9-12-6-7-2-14-1z" fill="#F2EBE3"/>
<path transform="translate(727,1252)" d="m0 0h18l13 4 10 6 10 9 7 11 4 13 1 16-1 46-10 1-1-18-7 8-8 6-11 5-4 1h-24l-12-4-10-6-9-8-7-11-4-12-1-6v-14l3-12 5-10 7-9 9-8 10-5zm1 2-10 4-9 6-8 9-7 14-2 8v21l4 14 7 12 9 9 12 6 4 1h14l10-3 9-6 5-5 6-8 5-12 2-9v-16l-3-14-5-10-8-10-8-6-8-4-4-1z" fill="#F6F1ED"/>
<path transform="translate(485,1191)" d="m0 0h2l6 16 20 53 9 23 16 42 3 10h2v-133h2l1 7v163h-2l-11-28-13-34-17-44-14-37-1-2v130h-3z" fill="#F3ECE4"/>
<path transform="translate(1128,1253)" d="m0 0h9l7 3 5 4 3 5 2 10v82l-10 1-1-87-3-9-5-5-7-1-8 4-6 7-2 8v82h-11v-102h10l1 9 7-8z" fill="#F5EFEA"/>
<path transform="translate(1029,1252)" d="m0 0h18l13 4 14 9 9 10 7 15 2 9v13l-4 16-6 10-9 10-8 6-13 5-4 1h-20l-11-3-11-6-10-9-7-11-5-13-1-15 3-15 7-13 10-11 11-7 10-4zm2 2-11 4-9 7-8 9-6 12-2 6-1 8v14l3 12 7 14 8 9 9 6 11 3h13l12-5 8-6 8-9 5-10 3-11v-20l-4-15-6-10-6-7-14-9-7-2z" fill="#F4EEE7"/>
<path transform="translate(1255,1204)" d="m0 0h20l9 3 9 6 6 10v14l-4 8-7 6-9 4-9 1h-12l-3-1z" fill="#1C2338"/>
<path transform="translate(962,1201)" d="m0 0h9l1 8v148l-10 1-1-5v-151z" fill="#F2EBE2"/>
<path transform="translate(1276,1202)" d="m0 0 10 1 10 4 8 6 5 9 1 10-3 9-7 8-10 6-3 1 13 4 10 5 10 8 6 8 4 7 3 13v10l-3 12-4 8-7 9-11 9-12 5-13 3h-8l3-3 16-4 11-7 10-11 4-8 2-8v-19l-3-10-6-10-9-9-13-7-13-2-14-1v-1l7-2 12-2 9-5 6-8 1-3v-14l-6-10-10-6-7-2z" fill="#F3ECE4"/>
<path transform="translate(939,1201)" d="m0 0h9l1 1v155l-10 1-1-23z" fill="#F5F1EC"/>
<path transform="translate(727,1252)" d="m0 0h18l4 2-2 2-4-1h-15l-10 4-9 6-7 8-7 14-2 8v21l4 14 7 12 8 8 16 8 1 2-9-1-12-5-11-8-7-8-6-12-3-13v-14l3-12 5-10 7-9 9-8 10-5z" fill="#F3ECE5"/>
<path transform="translate(1050,1254)" d="m0 0 7 1 10 5 9 7 7 8 7 15 2 9v13l-4 16-6 10-9 10-8 6-13 5-4 1h-15l-4-2 16-1 12-5 8-6 7-8 5-10 3-11v-20l-4-15-6-10-5-6-15-10z" fill="#F4EEE8"/>
<path transform="translate(619,1203)" d="m0 0 8 1 13 5 11 7 7 7 7 12 3 13v9l-2 10-7 14-7 8-10 7-12 5-12 2 2-4 12-4 8-6 5-5 4-5 4-8 3-12v-11l-3-14-7-12-9-8-12-6-7-2z" fill="#F4EEE8"/>
<path transform="translate(916,1255)" d="m0 0h10v102l-10 1z" fill="#F8F5F4"/>
<path transform="translate(1366,1229)" d="m0 0h1l8 49 4 22-1 1h-25l1-12 8-46 3-13z" fill="#1C2338"/>
<path transform="translate(1030,721)" d="m0 0 3 1 8 15 1 6-4 5-3 1h-9l-5-3-2-7 3-7z" fill="#1C2338"/>
<path transform="translate(543,1202)" d="m0 0h2l1 7v108l-1 15-2 1z" fill="#ECE1D1"/>
<path transform="translate(556,1202)" d="m0 0h10v25l-1 1h-10z" fill="#F4EEE7"/>
<path transform="translate(1363,1226)" d="m0 0 1 2 3 1-2 6-5 25-6 35h-3l6-37z" fill="#E5D4BA"/>
<path transform="translate(1018,715)" d="m0 0 6 2 2 2-4 6-5 8-4-4-1-2v-6l2-4z" fill="#1C2338"/>
<path transform="translate(1040,715)" d="m0 0 6 1 3 6-1 7-2 3-4-2-6-10-1-3z" fill="#1C2338"/>
<path transform="translate(1350,1300)" d="m0 0 2 4-1 9-6 34-2 10-3-1 7-40z" fill="#E5D4BC"/>
<path transform="translate(1542,1364)" d="m0 0 9 1 6 3 5 6 2 6v9l-4 8-6 5v-3l6-9 1-10-3-7-5-4-5-2-7-1z" fill="#E5D5BC"/>
<path transform="translate(919,1236)" d="m0 0 6 1 2 3-1 5-5 3-5-3-1-5z" fill="#F2EAE2"/>
<path transform="translate(1363,1226)" d="m0 0 1 2 3 1-2 6-4 20-3-1 4-23z" fill="#E0CCAD"/>
<path transform="translate(1412,1202)" d="m0 0h35v3l-28-1-7-1z" fill="#EEE4D6"/>
<path transform="translate(1128,1253)" d="m0 0h9l-2 1v2h-7l-8 4-5 4-1-2 5-6z" fill="#E5D4BB"/>
<path transform="translate(1029,1252)" d="m0 0h18l4 2-2 2-5-1h-13l-5 1v-2l-2-1z" fill="#E5D4BB"/>
<path transform="translate(846,1252)" d="m0 0h14l5 1-2 1-1 2-5-1h-9l-7 1-1-3z" fill="#E3D0B4"/>
<path transform="translate(841,1358)" d="m0 0h20l-1 2-3 1h-10l-6-2z" fill="#E8D9C4"/>
<path transform="translate(1359,1253)" d="m0 0h1l-1 13-1 6-3 1 1-10 2-9z" fill="#E9DAC6"/>
<path transform="translate(1350,1300)" d="m0 0 2 4-1 9-1 6-3 1 1-9z" fill="#E1CEB0"/>
<path transform="translate(1542,1364)" d="m0 0 9 1 6 3 3 4h-3l-6-4-10-2z" fill="#E2D0B3"/>
<path transform="translate(1288,1352)" d="m0 0 3 1 1 2-9 2h-8l3-3z" fill="#E4D3B8"/>
<path transform="translate(1344,1341)" d="m0 0h1l-1 11-1 5-3-1 2-13z" fill="#E8D9C3"/>
<path transform="translate(1363,1226)" d="m0 0 1 2 3 1-2 6-1 4h-2v-8z" fill="#E7D8C2"/>
<path transform="translate(739,1252)" d="m0 0 10 1-2 3-15-2v-1z" fill="#E0CBAB"/>
<path transform="translate(727,1252)" d="m0 0h12v1l-11 2-7-1v-1z" fill="#ECE0CF"/>
<path transform="translate(1128,1253)" d="m0 0h9l-2 1v2h-12l1-2z" fill="#E1CDAF"/>
<path transform="translate(1560,1393)" d="m0 0 1 3-7 6v-3l4-5z" fill="#E9DBC6"/>
</svg>
